<svg id="Capa_1" enable-background="new 0 0 512 512" height="512" viewBox="0 0 512 512" width="512" xmlns="http://www.w3.org/2000/svg"><g><circle cx="256" cy="256" r="256"/><g id="g2303" fill="#fff"><path id="path1948" d="m253.744 64.441c-15.626.073-30.547 1.405-43.677 3.728-38.678 6.833-45.701 21.136-45.701 47.512v34.835h91.402v11.612h-91.402-34.302c-26.564 0-49.824 15.966-57.099 46.34-8.392 34.815-8.764 56.541 0 92.893 6.497 27.059 22.013 46.34 48.577 46.34h31.426v-41.759c0-30.169 26.103-56.78 57.099-56.78h91.295c25.413 0 45.701-20.925 45.701-46.447v-87.034c0-24.77-20.897-43.378-45.701-47.512-15.702-2.614-31.993-3.801-47.618-3.728zm-49.43 28.017c9.441 0 17.151 7.836 17.151 17.47 0 9.601-7.71 17.364-17.151 17.364-9.475 0-17.151-7.763-17.151-17.364 0-9.634 7.676-17.47 17.151-17.47z"/><path id="path1950" d="m358.461 162.128v40.587c0 31.467-26.678 57.952-57.099 57.952h-91.295c-25.007 0-45.701 21.403-45.701 46.447v87.034c0 24.77 21.54 39.34 45.701 46.446 28.933 8.507 56.677 10.045 91.295 0 23.011-6.662 45.701-20.07 45.701-46.446v-34.835h-91.295v-11.612h91.295 45.701c26.564 0 36.462-18.529 45.701-46.34 9.543-28.631 9.137-56.165 0-92.893-6.565-26.444-19.103-46.34-45.701-46.34zm-51.346 220.408c9.475 0 17.151 7.763 17.151 17.364 0 9.635-7.676 17.471-17.151 17.471-9.441 0-17.151-7.836-17.151-17.471-.001-9.601 7.709-17.364 17.151-17.364z"/></g></g></svg>