<svg width="3999" height="575" viewBox="0 0 3999 575" fill="none" xmlns="http://www.w3.org/2000/svg">
<path d="M26.9888 460V114.58H110.477V392.198H254.177V460H26.9888ZM399.498 464.891C372.399 464.891 349.011 459.55 329.334 448.868C309.769 438.074 294.702 422.726 284.133 402.824C273.676 382.809 268.447 359.028 268.447 331.48C268.447 304.718 273.732 281.331 284.301 261.316C294.871 241.189 309.769 225.56 328.997 214.428C348.224 203.184 370.881 197.562 396.968 197.562C415.408 197.562 432.274 200.429 447.566 206.164C462.858 211.898 476.07 220.387 487.202 231.632C498.333 242.876 506.991 256.762 513.176 273.291C519.36 289.708 522.452 308.541 522.452 329.793V350.37H297.288V302.47H445.711C445.598 293.699 443.518 285.885 439.47 279.026C435.423 272.167 429.857 266.826 422.773 263.003C415.802 259.067 407.762 257.1 398.654 257.1C389.434 257.1 381.17 259.18 373.861 263.34C366.552 267.388 360.761 272.954 356.489 280.038C352.216 287.009 349.967 294.936 349.742 303.819V352.562C349.742 363.132 351.822 372.408 355.983 380.392C360.143 388.262 366.046 394.39 373.692 398.776C381.338 403.161 390.446 405.353 401.015 405.353C408.324 405.353 414.958 404.342 420.918 402.318C426.877 400.294 431.993 397.314 436.266 393.378C440.539 389.443 443.743 384.608 445.88 378.874L521.609 381.066C518.46 398.045 511.545 412.831 500.863 425.424C490.294 437.905 476.407 447.631 459.204 454.603C442 461.462 422.098 464.891 399.498 464.891ZM618.608 464.385C602.079 464.385 587.406 461.63 574.587 456.121C561.881 450.499 551.818 442.066 544.397 430.821C537.088 419.465 533.434 405.241 533.434 388.15C533.434 373.757 535.964 361.614 541.024 351.719C546.083 341.824 553.055 333.785 561.938 327.6C570.821 321.416 581.053 316.75 592.634 313.601C604.216 310.341 616.584 308.148 629.74 307.024C644.47 305.674 656.332 304.269 665.327 302.807C674.323 301.233 680.844 299.04 684.892 296.229C689.053 293.306 691.133 289.202 691.133 283.917V283.074C691.133 274.416 688.153 267.725 682.194 263.003C676.234 258.28 668.195 255.919 658.075 255.919C647.168 255.919 638.398 258.28 631.764 263.003C625.13 267.725 620.913 274.247 619.114 282.568L543.048 279.869C545.296 264.127 551.087 250.072 560.42 237.703C569.865 225.222 582.796 215.44 599.212 208.356C615.741 201.16 635.587 197.562 658.75 197.562C675.279 197.562 690.514 199.53 704.457 203.465C718.4 207.288 730.543 212.91 740.888 220.331C751.233 227.64 759.216 236.635 764.838 247.317C770.573 257.999 773.44 270.199 773.44 283.917V460H695.855V423.906H693.831C689.221 432.677 683.318 440.098 676.122 446.17C669.038 452.242 660.661 456.795 650.991 459.831C641.434 462.867 630.639 464.385 618.608 464.385ZM644.076 410.413C652.959 410.413 660.942 408.614 668.026 405.016C675.222 401.418 680.957 396.471 685.23 390.174C689.502 383.765 691.639 376.344 691.639 367.911V343.286C689.278 344.523 686.41 345.647 683.037 346.659C679.776 347.671 676.178 348.627 672.243 349.526C668.307 350.426 664.259 351.213 660.099 351.888C655.939 352.562 651.947 353.181 648.124 353.743C640.366 354.98 633.731 356.891 628.222 359.477C622.825 362.064 618.664 365.437 615.741 369.597C612.93 373.645 611.524 378.48 611.524 384.102C611.524 392.648 614.56 399.169 620.632 403.667C626.816 408.165 634.631 410.413 644.076 410.413ZM804.872 460V200.935H884.986V248.16H887.685C892.407 231.069 900.11 218.363 910.791 210.043C921.473 201.61 933.898 197.393 948.066 197.393C951.889 197.393 955.824 197.674 959.872 198.236C963.92 198.686 967.687 199.417 971.172 200.429V272.11C967.237 270.761 962.065 269.693 955.656 268.906C949.359 268.119 943.737 267.725 938.789 267.725C929.007 267.725 920.18 269.918 912.309 274.303C904.551 278.576 898.423 284.591 893.925 292.35C889.54 299.996 887.347 308.991 887.347 319.336V460H804.872ZM1068.26 312.252V460H985.78V200.935H1064.21V248.498H1067.08C1072.81 232.644 1082.59 220.219 1096.42 211.223C1110.25 202.116 1126.73 197.562 1145.84 197.562C1164.06 197.562 1179.85 201.666 1193.23 209.874C1206.73 217.97 1217.18 229.327 1224.61 243.944C1232.14 258.449 1235.85 275.427 1235.74 294.88V460H1153.26V311.071C1153.37 296.679 1149.72 285.435 1142.3 277.339C1134.99 269.243 1124.81 265.195 1111.77 265.195C1103.11 265.195 1095.47 267.107 1088.83 270.93C1082.31 274.64 1077.25 279.981 1073.65 286.953C1070.17 293.924 1068.37 302.357 1068.26 312.252Z" fill="white"/>
<path d="M1366.53 460V114.58H1483.24C1510.34 114.58 1532.49 119.471 1549.7 129.254C1567.01 138.924 1579.83 152.023 1588.15 168.552C1596.47 185.081 1600.63 203.521 1600.63 223.873C1600.63 244.225 1596.47 262.722 1588.15 279.363C1579.94 296.004 1567.24 309.272 1550.03 319.167C1532.83 328.95 1510.79 333.841 1483.92 333.841H1400.26V296.735H1482.57C1501.12 296.735 1516.02 293.531 1527.26 287.121C1538.51 280.712 1546.66 272.054 1551.72 261.147C1556.89 250.128 1559.48 237.703 1559.48 223.873C1559.48 210.043 1556.89 197.674 1551.72 186.767C1546.66 175.861 1538.45 167.315 1527.1 161.131C1515.74 154.834 1500.67 151.686 1481.89 151.686H1408.36V460H1366.53ZM1669.25 557.149C1662.51 557.149 1656.49 556.587 1651.21 555.463C1645.92 554.451 1642.27 553.439 1640.24 552.427L1650.36 517.345C1660.03 519.819 1668.58 520.718 1676 520.044C1683.42 519.369 1690 516.052 1695.73 510.093C1701.58 504.246 1706.92 494.744 1711.76 481.589L1719.18 461.349L1623.38 200.935H1666.56L1738.07 407.377H1740.77L1812.28 200.935H1855.46L1745.49 497.78C1740.54 511.161 1734.41 522.236 1727.11 531.007C1719.8 539.89 1711.31 546.467 1701.64 550.74C1692.08 555.013 1681.29 557.149 1669.25 557.149ZM2001.66 200.935V234.667H1867.41V200.935H2001.66ZM1906.54 138.867H1946.34V385.789C1946.34 397.033 1947.97 405.466 1951.23 411.088C1954.61 416.598 1958.88 420.308 1964.05 422.22C1969.34 424.019 1974.9 424.918 1980.75 424.918C1985.14 424.918 1988.73 424.693 1991.54 424.244C1994.36 423.681 1996.6 423.232 1998.29 422.894L2006.39 458.651C2003.69 459.663 1999.92 460.675 1995.09 461.687C1990.25 462.811 1984.12 463.373 1976.7 463.373C1965.46 463.373 1954.44 460.956 1943.64 456.121C1932.96 451.286 1924.08 443.921 1917 434.026C1910.02 424.131 1906.54 411.65 1906.54 396.583V138.867ZM2087.91 304.156V460H2048.11V114.58H2087.91V241.414H2091.28C2097.36 228.033 2106.46 217.408 2118.61 209.537C2130.86 201.554 2147.17 197.562 2167.52 197.562C2185.17 197.562 2200.63 201.104 2213.9 208.188C2227.17 215.159 2237.46 225.897 2244.77 240.402C2252.19 254.794 2255.9 273.122 2255.9 295.386V460H2216.09V298.084C2216.09 277.508 2210.75 261.597 2200.07 250.353C2189.5 238.996 2174.83 233.318 2156.05 233.318C2143.01 233.318 2131.31 236.073 2120.97 241.583C2110.74 247.092 2102.64 255.132 2096.68 265.701C2090.83 276.271 2087.91 289.089 2087.91 304.156ZM2414.97 465.397C2391.58 465.397 2371.06 459.831 2353.4 448.7C2335.86 437.568 2322.14 421.995 2312.25 401.98C2302.47 381.966 2297.58 358.578 2297.58 331.817C2297.58 304.831 2302.47 281.274 2312.25 261.147C2322.14 241.02 2335.86 225.391 2353.4 214.259C2371.06 203.128 2391.58 197.562 2414.97 197.562C2438.35 197.562 2458.82 203.128 2476.36 214.259C2494.01 225.391 2507.73 241.02 2517.51 261.147C2527.41 281.274 2532.35 304.831 2532.35 331.817C2532.35 358.578 2527.41 381.966 2517.51 401.98C2507.73 421.995 2494.01 437.568 2476.36 448.7C2458.82 459.831 2438.35 465.397 2414.97 465.397ZM2414.97 429.641C2432.73 429.641 2447.35 425.087 2458.82 415.979C2470.29 406.871 2478.78 394.896 2484.29 380.054C2489.79 365.212 2492.55 349.133 2492.55 331.817C2492.55 314.501 2489.79 298.366 2484.29 283.411C2478.78 268.456 2470.29 256.369 2458.82 247.148C2447.35 237.928 2432.73 233.318 2414.97 233.318C2397.2 233.318 2382.58 237.928 2371.11 247.148C2359.64 256.369 2351.15 268.456 2345.65 283.411C2340.14 298.366 2337.38 314.501 2337.38 331.817C2337.38 349.133 2340.14 365.212 2345.65 380.054C2351.15 394.896 2359.64 406.871 2371.11 415.979C2382.58 425.087 2397.2 429.641 2414.97 429.641ZM2613.92 304.156V460H2574.12V200.935H2612.57V241.414H2615.94C2622.02 228.258 2631.24 217.689 2643.61 209.706C2655.97 201.61 2671.94 197.562 2691.51 197.562C2709.05 197.562 2724.39 201.16 2737.55 208.356C2750.71 215.44 2760.94 226.234 2768.25 240.739C2775.56 255.132 2779.21 273.347 2779.21 295.386V460H2739.41V298.084C2739.41 277.733 2734.12 261.878 2723.55 250.522C2712.98 239.053 2698.48 233.318 2680.04 233.318C2667.33 233.318 2655.97 236.073 2645.97 241.583C2636.07 247.092 2628.26 255.132 2622.52 265.701C2616.79 276.271 2613.92 289.089 2613.92 304.156ZM3062.89 200.935V234.667H2923.24V200.935H3062.89ZM2965.07 460V165.179C2965.07 150.336 2968.56 137.968 2975.53 128.073C2982.5 118.178 2991.55 110.757 3002.68 105.81C3013.81 100.862 3025.56 98.3885 3037.93 98.3885C3047.71 98.3885 3055.7 99.1756 3061.88 100.75C3068.07 102.324 3072.68 103.786 3075.71 105.135L3064.24 139.542C3062.22 138.867 3059.41 138.024 3055.81 137.012C3052.32 136 3047.71 135.494 3041.98 135.494C3028.82 135.494 3019.32 138.811 3013.48 145.445C3007.74 152.079 3004.87 161.805 3004.87 174.624V460H2965.07ZM3194.26 465.397C3170.87 465.397 3150.35 459.831 3132.7 448.7C3115.16 437.568 3101.44 421.995 3091.54 401.98C3081.76 381.966 3076.87 358.578 3076.87 331.817C3076.87 304.831 3081.76 281.274 3091.54 261.147C3101.44 241.02 3115.16 225.391 3132.7 214.259C3150.35 203.128 3170.87 197.562 3194.26 197.562C3217.65 197.562 3238.11 203.128 3255.65 214.259C3273.3 225.391 3287.02 241.02 3296.8 261.147C3306.7 281.274 3311.65 304.831 3311.65 331.817C3311.65 358.578 3306.7 381.966 3296.8 401.98C3287.02 421.995 3273.3 437.568 3255.65 448.7C3238.11 459.831 3217.65 465.397 3194.26 465.397ZM3194.26 429.641C3212.02 429.641 3226.64 425.087 3238.11 415.979C3249.58 406.871 3258.07 394.896 3263.58 380.054C3269.09 365.212 3271.84 349.133 3271.84 331.817C3271.84 314.501 3269.09 298.366 3263.58 283.411C3258.07 268.456 3249.58 256.369 3238.11 247.148C3226.64 237.928 3212.02 233.318 3194.26 233.318C3176.49 233.318 3161.87 237.928 3150.41 247.148C3138.94 256.369 3130.45 268.456 3124.94 283.411C3119.43 298.366 3116.67 314.501 3116.67 331.817C3116.67 349.133 3119.43 365.212 3124.94 380.054C3130.45 394.896 3138.94 406.871 3150.41 415.979C3161.87 425.087 3176.49 429.641 3194.26 429.641ZM3353.41 460V200.935H3391.86V240.065H3394.56C3399.29 227.246 3407.83 216.846 3420.2 208.862C3432.57 200.879 3446.51 196.887 3462.03 196.887C3464.95 196.887 3468.61 196.943 3472.99 197.056C3477.38 197.168 3480.69 197.337 3482.94 197.562V238.041C3481.59 237.703 3478.5 237.197 3473.67 236.523C3468.94 235.736 3463.94 235.342 3458.65 235.342C3446.06 235.342 3434.82 237.985 3424.92 243.269C3415.14 248.442 3407.38 255.638 3401.65 264.858C3396.02 273.966 3393.21 284.367 3393.21 296.06V460H3353.41ZM3645.27 460H3601.42L3728.26 114.58H3771.43L3898.27 460H3854.41L3751.19 169.227H3748.5L3645.27 460ZM3661.47 325.07H3838.22V362.176H3661.47V325.07ZM3974.9 114.58V460H3933.07V114.58H3974.9Z" fill="#9F9FA8"/>
</svg>
